<mxfile host="65bd71144e" modified="2020-11-28T13:01:23.462Z" agent="5.0 (Windows NT 10.0; Win64; x64) AppleWebKit/537.36 (KHTML, like Gecko) Code/1.49.2 Chrome/83.0.4103.122 Electron/9.2.1 Safari/537.36" version="13.6.5" etag="cYj9aehDS5rCddJDxYg6">
    <diagram id="wvUGdz1dNlt-jMlDEiTl" name="Page-1">
        <mxGraphModel dx="720" dy="544" grid="1" gridSize="10" guides="1" tooltips="1" connect="1" arrows="1" fold="1" page="1" pageScale="1" pageWidth="850" pageHeight="1100" math="0" shadow="0">
            <root>
                <mxCell id="0"/>
                <mxCell id="1" parent="0"/>
                <mxCell id="4" value="&lt;div&gt;q[7:0]&lt;/div&gt;" style="edgeStyle=orthogonalEdgeStyle;rounded=0;orthogonalLoop=1;jettySize=auto;html=1;exitX=1.008;exitY=0.441;exitDx=0;exitDy=0;entryX=0;entryY=0.25;entryDx=0;entryDy=0;strokeWidth=4;exitPerimeter=0;" edge="1" parent="1" source="5" target="11">
                    <mxGeometry relative="1" as="geometry">
                        <Array as="points">
                            <mxPoint x="430" y="237"/>
                            <mxPoint x="430" y="190"/>
                            <mxPoint x="200" y="190"/>
                            <mxPoint x="200" y="103"/>
                        </Array>
                    </mxGeometry>
                </mxCell>
                <mxCell id="5" value="&lt;div&gt;display RAM&lt;/div&gt;&lt;div&gt;8 bit x 64&lt;br&gt;&lt;/div&gt;" style="rounded=0;whiteSpace=wrap;html=1;" vertex="1" parent="1">
                    <mxGeometry x="285" y="210" width="120" height="60" as="geometry"/>
                </mxCell>
                <mxCell id="11" value="&lt;div&gt;LCD&lt;/div&gt;&lt;div&gt;controller&lt;br&gt;&lt;/div&gt;" style="rounded=0;whiteSpace=wrap;html=1;" vertex="1" parent="1">
                    <mxGeometry x="300" y="80" width="120" height="90" as="geometry"/>
                </mxCell>
                <mxCell id="12" value="&lt;div&gt;DISPLAY&lt;/div&gt;&lt;div&gt;12864 ST7920&lt;br&gt;&lt;/div&gt;" style="rounded=1;whiteSpace=wrap;html=1;" vertex="1" parent="1">
                    <mxGeometry x="590" y="80" width="120" height="90" as="geometry"/>
                </mxCell>
                <mxCell id="13" value="ram_in [7:0]" style="rounded=0;orthogonalLoop=1;jettySize=auto;html=1;exitX=0.99;exitY=0.56;exitDx=0;exitDy=0;entryX=0;entryY=0.75;entryDx=0;entryDy=0;strokeWidth=4;exitPerimeter=0;" edge="1" parent="1" source="15" target="5">
                    <mxGeometry x="-0.0259" y="-1" relative="1" as="geometry">
                        <mxPoint as="offset"/>
                    </mxGeometry>
                </mxCell>
                <mxCell id="14" value="write_address [5:0]" style="rounded=0;orthogonalLoop=1;jettySize=auto;html=1;exitX=1;exitY=0.75;exitDx=0;exitDy=0;entryX=0.001;entryY=0.921;entryDx=0;entryDy=0;entryPerimeter=0;strokeWidth=2;" edge="1" parent="1" source="15" target="18">
                    <mxGeometry x="-0.0353" relative="1" as="geometry">
                        <mxPoint as="offset"/>
                    </mxGeometry>
                </mxCell>
                <mxCell id="15" value="&lt;div&gt;the rest of the system&lt;/div&gt;" style="rounded=0;whiteSpace=wrap;html=1;" vertex="1" parent="1">
                    <mxGeometry x="20" y="220" width="120" height="60" as="geometry"/>
                </mxCell>
                <mxCell id="16" value="data_in" style="text;html=1;strokeColor=none;fillColor=none;align=center;verticalAlign=middle;whiteSpace=wrap;rounded=0;" vertex="1" parent="1">
                    <mxGeometry x="230" y="80" width="40" height="20" as="geometry"/>
                </mxCell>
                <mxCell id="17" value="&lt;div&gt;ram_out[7:0]&lt;/div&gt;" style="edgeStyle=orthogonalEdgeStyle;rounded=0;orthogonalLoop=1;jettySize=auto;html=1;exitX=1.008;exitY=0.441;exitDx=0;exitDy=0;entryX=0;entryY=0.25;entryDx=0;entryDy=0;strokeWidth=4;exitPerimeter=0;" edge="1" parent="1" source="18" target="24">
                    <mxGeometry relative="1" as="geometry">
                        <Array as="points">
                            <mxPoint x="430" y="237"/>
                            <mxPoint x="430" y="190"/>
                            <mxPoint x="200" y="190"/>
                            <mxPoint x="200" y="103"/>
                        </Array>
                    </mxGeometry>
                </mxCell>
                <mxCell id="18" value="&lt;div&gt;display RAM&lt;/div&gt;&lt;div&gt;1024 x 8-bit&lt;/div&gt;" style="rounded=0;whiteSpace=wrap;html=1;" vertex="1" parent="1">
                    <mxGeometry x="285" y="210" width="120" height="60" as="geometry"/>
                </mxCell>
                <mxCell id="22" value="&lt;div&gt;data [7:0]&lt;/div&gt;" style="rounded=0;orthogonalLoop=1;jettySize=auto;html=1;strokeWidth=4;" edge="1" parent="1" target="25">
                    <mxGeometry x="0.5476" relative="1" as="geometry">
                        <mxPoint as="offset"/>
                        <mxPoint x="421" y="125" as="sourcePoint"/>
                    </mxGeometry>
                </mxCell>
                <mxCell id="23" value="addr_out [9:0]" style="edgeStyle=orthogonalEdgeStyle;rounded=0;orthogonalLoop=1;jettySize=auto;html=1;exitX=1;exitY=0.25;exitDx=0;exitDy=0;entryX=-0.017;entryY=0.383;entryDx=0;entryDy=0;entryPerimeter=0;strokeWidth=2;" edge="1" parent="1" source="24" target="18">
                    <mxGeometry x="-0.242" relative="1" as="geometry">
                        <Array as="points">
                            <mxPoint x="450" y="103"/>
                            <mxPoint x="450" y="50"/>
                            <mxPoint x="170" y="50"/>
                            <mxPoint x="170" y="233"/>
                        </Array>
                        <mxPoint as="offset"/>
                    </mxGeometry>
                </mxCell>
                <mxCell id="24" value="&lt;div&gt;LCD&lt;/div&gt;&lt;div&gt;controller&lt;br&gt;&lt;/div&gt;" style="rounded=0;whiteSpace=wrap;html=1;" vertex="1" parent="1">
                    <mxGeometry x="300" y="80" width="120" height="90" as="geometry"/>
                </mxCell>
                <mxCell id="25" value="&lt;div&gt;DISPLAY&lt;/div&gt;&lt;div&gt;12864 ST7920&lt;br&gt;&lt;/div&gt;" style="rounded=1;whiteSpace=wrap;html=1;" vertex="1" parent="1">
                    <mxGeometry x="590" y="80" width="120" height="90" as="geometry"/>
                </mxCell>
                <mxCell id="28" value="&lt;div&gt;top module&lt;/div&gt;" style="rounded=0;whiteSpace=wrap;html=1;" vertex="1" parent="1">
                    <mxGeometry x="20" y="220" width="120" height="60" as="geometry"/>
                </mxCell>
                <mxCell id="29" value="data_in" style="text;html=1;strokeColor=none;fillColor=none;align=center;verticalAlign=middle;whiteSpace=wrap;rounded=0;" vertex="1" parent="1">
                    <mxGeometry x="230" y="80" width="40" height="20" as="geometry"/>
                </mxCell>
                <mxCell id="31" value="rxData[7:0]" style="edgeStyle=orthogonalEdgeStyle;rounded=0;orthogonalLoop=1;jettySize=auto;html=1;exitX=0.75;exitY=1;exitDx=0;exitDy=0;entryX=0.75;entryY=0;entryDx=0;entryDy=0;strokeWidth=3;" edge="1" parent="1" source="30" target="28">
                    <mxGeometry relative="1" as="geometry"/>
                </mxCell>
                <mxCell id="32" value="rxReady" style="edgeStyle=orthogonalEdgeStyle;rounded=0;orthogonalLoop=1;jettySize=auto;html=1;exitX=0.25;exitY=1;exitDx=0;exitDy=0;entryX=0.25;entryY=0;entryDx=0;entryDy=0;strokeWidth=1;" edge="1" parent="1" source="30" target="28">
                    <mxGeometry relative="1" as="geometry"/>
                </mxCell>
                <mxCell id="30" value="&lt;div&gt;UART receiver&lt;/div&gt;" style="rounded=0;whiteSpace=wrap;html=1;" vertex="1" parent="1">
                    <mxGeometry x="20" y="50" width="120" height="60" as="geometry"/>
                </mxCell>
            </root>
        </mxGraphModel>
    </diagram>
</mxfile>